<?xml version="1.0"?>
<svg xmlns="http://www.w3.org/2000/svg" xmlns:xlink="http://www.w3.org/1999/xlink" viewBox="0 0 64 64" width="512" height="512"><defs><linearGradient id="New_Gradient_Swatch_1" x1="28" y1="2.001" x2="28" y2="67.008" gradientUnits="userSpaceOnUse"><stop offset="0" stop-color="#fff33b"/><stop offset="0.014" stop-color="#fee72e"/><stop offset="0.042" stop-color="#fed51b"/><stop offset="0.07" stop-color="#fdca10"/><stop offset="0.1" stop-color="#fdc70c"/><stop offset="0.4" stop-color="#f3903f"/><stop offset="0.8" stop-color="#ed683c"/><stop offset="1" stop-color="#e93e3a"/></linearGradient><linearGradient id="New_Gradient_Swatch_1-2" x1="30" y1="2" x2="30" y2="67.008" xlink:href="#New_Gradient_Swatch_1"/></defs><g id="Brain-2" data-name="Brain"><path d="M53.941,24.3A24.054,24.054,0,0,0,7.03,18.757l-5,20A1,1,0,0,0,3,40h7v3a7.008,7.008,0,0,0,7,7h6V61a1,1,0,0,0,1,1H44a1,1,0,0,0,1-1V44.729A24,24,0,0,0,53.941,24.3ZM43.391,43.45a1,1,0,0,0-.391.793V60H25V49a1,1,0,0,0-1-1H17a5.006,5.006,0,0,1-5-5V39a1,1,0,0,0-1-1H4.28L8.952,19.3A22.04,22.04,0,1,1,43.391,43.45Z" style="fill:url(#New_Gradient_Swatch_1)"/><path d="M49,21a7.011,7.011,0,0,0-5.618-6.862A7,7,0,0,0,30,17v2H20V16.816a3,3,0,1,0-2,0V20a1,1,0,0,0,1,1H30v2H15.816a3,3,0,1,0,0,2H30v2H19a1,1,0,0,0-1,1v3.184a3,3,0,1,0,2,0V29H30v4a7,7,0,0,0,13.931.931,6.955,6.955,0,0,0,4.776-10.938A6.977,6.977,0,0,0,49,21ZM19,13a1,1,0,1,1-1,1A1,1,0,0,1,19,13ZM13,25a1,1,0,1,1,1-1A1,1,0,0,1,13,25Zm6,10a1,1,0,1,1,1-1A1,1,0,0,1,19,35Zm29-8a5,5,0,0,1-10,0H36a7,7,0,0,0,5.908,6.906A4.995,4.995,0,0,1,32,33V17a4.988,4.988,0,0,1,9.036-2.926A7.006,7.006,0,0,0,35,21h2a5,5,0,0,1,4.9-4.99A5,5,0,0,1,37,22v2a7.008,7.008,0,0,0,7-7c0-.2-.013-.4-.03-.592A5,5,0,0,1,42,26v2a6.989,6.989,0,0,0,5.634-2.863A4.972,4.972,0,0,1,48,27Z" style="fill:url(#New_Gradient_Swatch_1-2)"/></g></svg>
