<svg height="512" viewBox="0 0 64 64" width="512" xmlns="http://www.w3.org/2000/svg" xmlns:xlink="http://www.w3.org/1999/xlink"><linearGradient id="New_Gradient_Swatch_1" gradientUnits="userSpaceOnUse" x1="52" x2="52" y1="1" y2="67"><stop offset="0" stop-color="#fff33b"/><stop offset=".014" stop-color="#fee72e"/><stop offset=".042" stop-color="#fed51b"/><stop offset=".07" stop-color="#fdca10"/><stop offset=".1" stop-color="#fdc70c"/><stop offset=".4" stop-color="#f3903f"/><stop offset=".8" stop-color="#ed683c"/><stop offset="1" stop-color="#e93e3a"/></linearGradient><linearGradient id="New_Gradient_Swatch_1-2" x1="50" x2="50" xlink:href="#New_Gradient_Swatch_1" y1="1" y2="67"/><linearGradient id="New_Gradient_Swatch_1-3" x1="16" x2="16" xlink:href="#New_Gradient_Swatch_1" y1="1" y2="67"/><linearGradient id="New_Gradient_Swatch_1-4" x1="48" x2="48" xlink:href="#New_Gradient_Swatch_1" y1="1" y2="67"/><linearGradient id="New_Gradient_Swatch_1-5" x1="14" x2="14" xlink:href="#New_Gradient_Swatch_1" y1="1" y2="67"/><linearGradient id="New_Gradient_Swatch_1-6" x1="9" x2="9" xlink:href="#New_Gradient_Swatch_1" y1="1" y2="67"/><linearGradient id="New_Gradient_Swatch_1-7" x1="19" x2="19" xlink:href="#New_Gradient_Swatch_1" y1="1" y2="67"/><linearGradient id="New_Gradient_Swatch_1-9" x1="8" x2="8" xlink:href="#New_Gradient_Swatch_1" y1="1" y2="67"/><linearGradient id="New_Gradient_Swatch_1-10" x1="20" x2="20" xlink:href="#New_Gradient_Swatch_1" y1="1" y2="67"/><linearGradient id="New_Gradient_Swatch_1-13" x1="7" x2="7" xlink:href="#New_Gradient_Swatch_1" y1="1" y2="67"/><linearGradient id="New_Gradient_Swatch_1-14" x1="18" x2="18" xlink:href="#New_Gradient_Swatch_1" y1="1" y2="67"/><linearGradient id="New_Gradient_Swatch_1-17" x1="41" x2="41" xlink:href="#New_Gradient_Swatch_1" y1="1" y2="67"/><linearGradient id="New_Gradient_Swatch_1-19" x1="40" x2="40" xlink:href="#New_Gradient_Swatch_1" y1="1" y2="67"/><linearGradient id="New_Gradient_Swatch_1-20" x1="51" x2="51" xlink:href="#New_Gradient_Swatch_1" y1="1" y2="67"/><linearGradient id="New_Gradient_Swatch_1-21" x1="39" x2="39" xlink:href="#New_Gradient_Swatch_1" y1="1" y2="67"/><linearGradient id="New_Gradient_Swatch_1-29" x1="29" x2="29" xlink:href="#New_Gradient_Swatch_1" y1="1" y2="67"/><linearGradient id="New_Gradient_Swatch_1-30" x1="35" x2="35" xlink:href="#New_Gradient_Swatch_1" y1="1" y2="67"/><g id="Communication"><path d="m52 50a3 3 0 1 0 -3-3 3 3 0 0 0 3 3zm0-4a1 1 0 1 1 -1 1 1 1 0 0 1 1-1z" fill="url(#New_Gradient_Swatch_1)"/><path d="m51 36a11.013 11.013 0 0 0 -11 10.834l-1.95 5.85a1 1 0 0 0 .95 1.316h3v3a1 1 0 0 0 1 1h3v3a1 1 0 0 0 1 1h8a1 1 0 0 0 1-1v-4.2a11 11 0 0 0 -5-20.8zm1 7a4 4 0 1 1 -4 4 4 4 0 0 1 4-4zm2.6 12.246a1 1 0 0 0 -.6.916v3.838h-6v-3a1 1 0 0 0 -1-1h-3v-3a1 1 0 0 0 -1-1h-2.613l1.562-4.684a1 1 0 0 0 .051-.316 9.01 9.01 0 0 1 9-9v3.09a6 6 0 1 0 2 0v-2.858a8.993 8.993 0 0 1 1.6 17.014z" fill="url(#New_Gradient_Swatch_1-2)"/><path d="m29 2h-26a1 1 0 0 0 -1 1v16a1 1 0 0 0 1 1h26a1 1 0 0 0 1-1v-16a1 1 0 0 0 -1-1zm-1 16h-24v-14h24z" fill="url(#New_Gradient_Swatch_1-3)"/><path d="m61 2h-26a1 1 0 0 0 -1 1v16a1 1 0 0 0 1 1h26a1 1 0 0 0 1-1v-16a1 1 0 0 0 -1-1zm-1 16h-24v-14h24z" fill="url(#New_Gradient_Swatch_1-4)"/><path d="m23 44h-2v-1a3 3 0 0 0 -3-3h-1v-1a3 3 0 0 0 -6 0v1h-1a3 3 0 0 0 -3 3v1h-2a3 3 0 0 0 -3 3v12a3 3 0 0 0 3 3h18a3 3 0 0 0 3-3v-12a3 3 0 0 0 -3-3zm-10-5a1 1 0 0 1 2 0v1h-2zm-4 4a1 1 0 0 1 1-1h8a1 1 0 0 1 1 1v1h-10zm15 16a1 1 0 0 1 -1 1h-18a1 1 0 0 1 -1-1v-12a1 1 0 0 1 1-1h18a1 1 0 0 1 1 1z" fill="url(#New_Gradient_Swatch_1-5)"/><path d="m12 51a3 3 0 1 0 -3 3 3 3 0 0 0 3-3zm-3 1a1 1 0 1 1 1-1 1 1 0 0 1 -1 1z" fill="url(#New_Gradient_Swatch_1-6)"/><path d="m19 48a3 3 0 1 0 3 3 3 3 0 0 0 -3-3zm0 4a1 1 0 1 1 1-1 1 1 0 0 1 -1 1z" fill="url(#New_Gradient_Swatch_1-7)"/><path d="m11 56h6v2h-6z" fill="url(#New_Gradient_Swatch_1-5)"/><path d="m7 56h2v2h-2z" fill="url(#New_Gradient_Swatch_1-9)"/><path d="m19 56h2v2h-2z" fill="url(#New_Gradient_Swatch_1-10)"/><path d="m6 6h4v2h-4z" fill="url(#New_Gradient_Swatch_1-9)"/><path d="m12 6h14v2h-14z" fill="url(#New_Gradient_Swatch_1-7)"/><path d="m6 10h2v2h-2z" fill="url(#New_Gradient_Swatch_1-13)"/><path d="m10 10h16v2h-16z" fill="url(#New_Gradient_Swatch_1-14)"/><path d="m6 14h6v2h-6z" fill="url(#New_Gradient_Swatch_1-6)"/><path d="m14 14h12v2h-12z" fill="url(#New_Gradient_Swatch_1-10)"/><path d="m38 6h6v2h-6z" fill="url(#New_Gradient_Swatch_1-17)"/><path d="m46 6h12v2h-12z" fill="url(#New_Gradient_Swatch_1)"/><path d="m38 10h4v2h-4z" fill="url(#New_Gradient_Swatch_1-19)"/><path d="m44 10h14v2h-14z" fill="url(#New_Gradient_Swatch_1-20)"/><path d="m38 14h2v2h-2z" fill="url(#New_Gradient_Swatch_1-21)"/><path d="m42 14h16v2h-16z" fill="url(#New_Gradient_Swatch_1-2)"/><g fill="url(#New_Gradient_Swatch_1-5)"><path d="m13 32h2v2h-2z"/><path d="m13 28h2v2h-2z"/><path d="m13 24h2v2h-2z"/></g><path d="m50 32h2v2h-2z" fill="url(#New_Gradient_Swatch_1-20)"/><path d="m50 28h2v2h-2z" fill="url(#New_Gradient_Swatch_1-20)"/><path d="m50 24h2v2h-2z" fill="url(#New_Gradient_Swatch_1-20)"/><path d="m28 52h2v2h-2z" fill="url(#New_Gradient_Swatch_1-29)"/><path d="m34 52h2v2h-2z" fill="url(#New_Gradient_Swatch_1-30)"/></g></svg>