<svg height="512" viewBox="0 0 64 64" width="512" xmlns="http://www.w3.org/2000/svg" xmlns:xlink="http://www.w3.org/1999/xlink"><linearGradient id="New_Gradient_Swatch_1" gradientUnits="userSpaceOnUse" x1="21" x2="21" y1=".584" y2="62.897"><stop offset="0" stop-color="#fff33b"/><stop offset=".014" stop-color="#fee72e"/><stop offset=".042" stop-color="#fed51b"/><stop offset=".07" stop-color="#fdca10"/><stop offset=".1" stop-color="#fdc70c"/><stop offset=".4" stop-color="#f3903f"/><stop offset=".8" stop-color="#ed683c"/><stop offset="1" stop-color="#e93e3a"/></linearGradient><linearGradient id="New_Gradient_Swatch_1-3" x1="32" x2="32" xlink:href="#New_Gradient_Swatch_1" y1=".584" y2="62.897"/><linearGradient id="New_Gradient_Swatch_1-4" x1="53" x2="53" xlink:href="#New_Gradient_Swatch_1" y1=".584" y2="62.897"/><linearGradient id="New_Gradient_Swatch_1-10" x1="7" x2="7" xlink:href="#New_Gradient_Swatch_1" y1=".584" y2="62.897"/><linearGradient id="New_Gradient_Swatch_1-11" x1="11" x2="11" xlink:href="#New_Gradient_Swatch_1" y1=".584" y2="62.897"/><linearGradient id="New_Gradient_Swatch_1-12" x1="15" x2="15" xlink:href="#New_Gradient_Swatch_1" y1=".584" y2="62.897"/><linearGradient id="New_Gradient_Swatch_1-13" x1="19" x2="19" xlink:href="#New_Gradient_Swatch_1" y1=".584" y2="62.897"/><linearGradient id="New_Gradient_Swatch_1-14" x1="23" x2="23" xlink:href="#New_Gradient_Swatch_1" y1=".584" y2="62.897"/><linearGradient id="New_Gradient_Swatch_1-15" x1="27" x2="27" xlink:href="#New_Gradient_Swatch_1" y1=".584" y2="62.897"/><linearGradient id="New_Gradient_Swatch_1-16" x1="31" x2="31" xlink:href="#New_Gradient_Swatch_1" y1=".584" y2="62.897"/><linearGradient id="New_Gradient_Swatch_1-17" x1="35" x2="35" xlink:href="#New_Gradient_Swatch_1" y1=".584" y2="62.897"/><linearGradient id="New_Gradient_Swatch_1-28" x1="57" x2="57" xlink:href="#New_Gradient_Swatch_1" y1=".584" y2="62.897"/><linearGradient id="New_Gradient_Swatch_1-30" x1="9" x2="9" xlink:href="#New_Gradient_Swatch_1" y1=".584" y2="62.897"/><path d="m5 28h13v6h-1a5.006 5.006 0 0 0 -5 5 1 1 0 0 0 1 1h16a1 1 0 0 0 1-1 5.006 5.006 0 0 0 -5-5h-1v-6h13a3 3 0 0 0 3-3v-20a3 3 0 0 0 -3-3h-32a3 3 0 0 0 -3 3v20a3 3 0 0 0 3 3zm22.829 10h-13.658a3.006 3.006 0 0 1 2.829-2h8a3.006 3.006 0 0 1 2.829 2zm-5.829-4h-2v-6h2zm-18-29a1 1 0 0 1 1-1h32a1 1 0 0 1 1 1v20a1 1 0 0 1 -1 1h-32a1 1 0 0 1 -1-1z" fill="url(#New_Gradient_Swatch_1)"/><path d="m6 25h30a1 1 0 0 0 1-1v-18a1 1 0 0 0 -1-1h-30a1 1 0 0 0 -1 1v18a1 1 0 0 0 1 1zm1-18h28v16h-28z" fill="url(#New_Gradient_Swatch_1)"/><path d="m59 2h-12a3 3 0 0 0 -3 3v26h-8a3 3 0 0 0 -3 3v9a3 3 0 0 0 3 3h5a1 1 0 0 1 1 1v6a1 1 0 0 1 -1 1h-1v-3a3 3 0 0 0 -3-3h-32a3 3 0 0 0 -3 3v8a3 3 0 0 0 3 3h32a3 3 0 0 0 3-3v-3h1a3 3 0 0 0 3-3v-6a3 3 0 0 0 -3-3h-5a1 1 0 0 1 -1-1v-9a1 1 0 0 1 1-1h8v4a3 3 0 0 0 3 3h12a3 3 0 0 0 3-3v-32a3 3 0 0 0 -3-3zm-21 57a1 1 0 0 1 -1 1h-32a1 1 0 0 1 -1-1v-8a1 1 0 0 1 1-1h32a1 1 0 0 1 1 1zm22-22a1 1 0 0 1 -1 1h-12a1 1 0 0 1 -1-1v-32a1 1 0 0 1 1-1h12a1 1 0 0 1 1 1z" fill="url(#New_Gradient_Swatch_1-3)"/><g fill="url(#New_Gradient_Swatch_1-4)"><path d="m57 6h-8a1 1 0 0 0 -1 1v4a1 1 0 0 0 1 1h8a1 1 0 0 0 1-1v-4a1 1 0 0 0 -1-1zm-1 4h-6v-2h6z"/><path d="m53 28a4 4 0 1 0 4 4 4 4 0 0 0 -4-4zm0 6a2 2 0 1 1 2-2 2 2 0 0 1 -2 2z"/><path d="m48 14h10v2h-10z"/><path d="m48 18h10v2h-10z"/><path d="m48 22h10v2h-10z"/></g><path d="m10 57h22v2h-22z" fill="url(#New_Gradient_Swatch_1)"/><path d="m6 51h2v2h-2z" fill="url(#New_Gradient_Swatch_1-10)"/><path d="m10 51h2v2h-2z" fill="url(#New_Gradient_Swatch_1-11)"/><path d="m14 51h2v2h-2z" fill="url(#New_Gradient_Swatch_1-12)"/><path d="m18 51h2v2h-2z" fill="url(#New_Gradient_Swatch_1-13)"/><path d="m22 51h2v2h-2z" fill="url(#New_Gradient_Swatch_1-14)"/><path d="m26 51h2v2h-2z" fill="url(#New_Gradient_Swatch_1-15)"/><path d="m30 51h2v2h-2z" fill="url(#New_Gradient_Swatch_1-16)"/><path d="m34 51h2v2h-2z" fill="url(#New_Gradient_Swatch_1-17)"/><path d="m6 54h2v2h-2z" fill="url(#New_Gradient_Swatch_1-10)"/><path d="m6 57h2v2h-2z" fill="url(#New_Gradient_Swatch_1-10)"/><path d="m34 57h2v2h-2z" fill="url(#New_Gradient_Swatch_1-17)"/><path d="m10 54h2v2h-2z" fill="url(#New_Gradient_Swatch_1-11)"/><path d="m14 54h2v2h-2z" fill="url(#New_Gradient_Swatch_1-12)"/><path d="m18 54h2v2h-2z" fill="url(#New_Gradient_Swatch_1-13)"/><path d="m22 54h2v2h-2z" fill="url(#New_Gradient_Swatch_1-14)"/><path d="m26 54h2v2h-2z" fill="url(#New_Gradient_Swatch_1-15)"/><path d="m30 54h2v2h-2z" fill="url(#New_Gradient_Swatch_1-16)"/><path d="m34 54h2v2h-2z" fill="url(#New_Gradient_Swatch_1-17)"/><path d="m57 46a5.006 5.006 0 0 0 -5 5v6a5 5 0 0 0 10 0v-6a5.006 5.006 0 0 0 -5-5zm-3 5a3 3 0 0 1 2-2.816v1.816h2v-1.816a3 3 0 0 1 2 2.816v1h-6zm3 9a3 3 0 0 1 -3-3v-3h6v3a3 3 0 0 1 -3 3z" fill="url(#New_Gradient_Swatch_1-28)"/><path d="m8 9v3h2v-2h4v-2h-5a1 1 0 0 0 -1 1z" fill="url(#New_Gradient_Swatch_1-11)"/><path d="m8 14h2v2h-2z" fill="url(#New_Gradient_Swatch_1-30)"/></svg>