<svg height="512" viewBox="0 0 64 64" width="512" xmlns="http://www.w3.org/2000/svg" xmlns:xlink="http://www.w3.org/1999/xlink"><linearGradient id="New_Gradient_Swatch_1" gradientUnits="userSpaceOnUse" x1="32" x2="32" y1=".167" y2="64.582"><stop offset="0" stop-color="#fff33b"/><stop offset=".014" stop-color="#fee72e"/><stop offset=".042" stop-color="#fed51b"/><stop offset=".07" stop-color="#fdca10"/><stop offset=".1" stop-color="#fdc70c"/><stop offset=".4" stop-color="#f3903f"/><stop offset=".8" stop-color="#ed683c"/><stop offset="1" stop-color="#e93e3a"/></linearGradient><linearGradient id="New_Gradient_Swatch_1-2" x1="11" x2="11" xlink:href="#New_Gradient_Swatch_1" y1=".167" y2="64.582"/><linearGradient id="New_Gradient_Swatch_1-3" x1="10" x2="10" xlink:href="#New_Gradient_Swatch_1" y1=".167" y2="64.582"/><linearGradient id="New_Gradient_Swatch_1-4" x1="53" x2="53" xlink:href="#New_Gradient_Swatch_1" y1=".167" y2="64.582"/><linearGradient id="New_Gradient_Swatch_1-5" x1="54" x2="54" xlink:href="#New_Gradient_Swatch_1" y1=".167" y2="64.582"/><path d="m59 40h-1v-1a3 3 0 0 0 -3-3v-11a23 23 0 0 0 -46 0v11a3 3 0 0 0 -3 3v1h-1a3 3 0 0 0 -3 3v12a3 3 0 0 0 3 3h1v1a3 3 0 0 0 3 3h8a1 1 0 0 0 1-1h1a3 3 0 0 0 3-3v-18a3 3 0 0 0 -3-3h-1a1 1 0 0 0 -1-1h-2v-11a17 17 0 0 1 34 0v11h-2a1 1 0 0 0 -1 1h-1a3 3 0 0 0 -3 3v18a3 3 0 0 0 3 3h1a1 1 0 0 0 1 1h8a3 3 0 0 0 3-3v-1h1a3 3 0 0 0 3-3v-12a3 3 0 0 0 -3-3zm-40-1a1 1 0 0 1 1 1v18a1 1 0 0 1 -1 1h-1v-20zm26 20a1 1 0 0 1 -1-1v-18a1 1 0 0 1 1-1h1v20zm-40-3a1 1 0 0 1 -1-1v-12a1 1 0 0 1 1-1h1v14zm11 4h-7a1 1 0 0 1 -1-1v-20a1 1 0 0 1 1-1h7zm16-54a19.021 19.021 0 0 0 -19 19v11h-2v-11a21 21 0 0 1 42 0v11h-2v-11a19.021 19.021 0 0 0 -19-19zm24 53a1 1 0 0 1 -1 1h-7v-22h7a1 1 0 0 1 1 1zm4-4a1 1 0 0 1 -1 1h-1v-14h1a1 1 0 0 1 1 1z" fill="url(#New_Gradient_Swatch_1)"/><path d="m11 53h-2v5a1 1 0 0 0 1 1h3v-2h-2z" fill="url(#New_Gradient_Swatch_1-2)"/><path d="m9 49h2v2h-2z" fill="url(#New_Gradient_Swatch_1-3)"/><path d="m53 57h-2v2h3a1 1 0 0 0 1-1v-5h-2z" fill="url(#New_Gradient_Swatch_1-4)"/><path d="m53 49h2v2h-2z" fill="url(#New_Gradient_Swatch_1-5)"/></svg>