<svg height="512" viewBox="0 0 64 64" width="512" xmlns="http://www.w3.org/2000/svg" xmlns:xlink="http://www.w3.org/1999/xlink"><linearGradient id="New_Gradient_Swatch_1" gradientUnits="userSpaceOnUse" x1="50" x2="50" y1="2" y2="68.008"><stop offset="0" stop-color="#fff33b"/><stop offset=".014" stop-color="#fee72e"/><stop offset=".042" stop-color="#fed51b"/><stop offset=".07" stop-color="#fdca10"/><stop offset=".1" stop-color="#fdc70c"/><stop offset=".4" stop-color="#f3903f"/><stop offset=".8" stop-color="#ed683c"/><stop offset="1" stop-color="#e93e3a"/></linearGradient><linearGradient id="New_Gradient_Swatch_1-2" x1="20" x2="20" xlink:href="#New_Gradient_Swatch_1" y1="2" y2="68.008"/><linearGradient id="New_Gradient_Swatch_1-3" x1="25.714" x2="25.714" xlink:href="#New_Gradient_Swatch_1" y1="2" y2="68.008"/><linearGradient id="New_Gradient_Swatch_1-4" x1="21.14" x2="21.14" xlink:href="#New_Gradient_Swatch_1" y1="2" y2="68.008"/><linearGradient id="New_Gradient_Swatch_1-6" gradientTransform="matrix(.707 .707 -.707 .707 8.686 -3.598)" x1="8.686" x2="8.686" xlink:href="#New_Gradient_Swatch_1" y1="2" y2="68.008"/><linearGradient id="New_Gradient_Swatch_1-7" x1="4" x2="4" xlink:href="#New_Gradient_Swatch_1" y1="2" y2="68.008"/><linearGradient id="New_Gradient_Swatch_1-8" x1="36" x2="36" xlink:href="#New_Gradient_Swatch_1" y1="2" y2="68.008"/><linearGradient id="New_Gradient_Swatch_1-9" gradientTransform="matrix(.707 .707 -.707 .707 15.314 -19.598)" x1="31.314" x2="31.314" xlink:href="#New_Gradient_Swatch_1" y1="2" y2="68.008"/><linearGradient id="New_Gradient_Swatch_1-10" x1="53" x2="53" xlink:href="#New_Gradient_Swatch_1" y1="2" y2="68.008"/><linearGradient id="New_Gradient_Swatch_1-11" x1="9" x2="9" xlink:href="#New_Gradient_Swatch_1" y1="2" y2="68.008"/><linearGradient id="New_Gradient_Swatch_1-12" gradientTransform="matrix(.966 .259 -.259 .966 10.156 -1.239)" x1="9.784" x2="9.784" xlink:href="#New_Gradient_Swatch_1" y1="2" y2="68.008"/><linearGradient id="New_Gradient_Swatch_1-13" gradientTransform="matrix(.866 .5 -.5 .866 23.365 -.214)" x1="12.081" x2="12.081" xlink:href="#New_Gradient_Swatch_1" y1="2" y2="68.008"/><linearGradient id="New_Gradient_Swatch_1-14" gradientTransform="matrix(.707 .707 -.707 .707 38.737 3.009)" x1="15.737" x2="15.737" xlink:href="#New_Gradient_Swatch_1" y1="2" y2="68.008"/><linearGradient id="New_Gradient_Swatch_1-15" gradientTransform="matrix(.5 .866 -.866 .5 55.217 8.209)" x1="20.5" x2="20.5" xlink:href="#New_Gradient_Swatch_1" y1="2" y2="68.008"/><linearGradient id="New_Gradient_Swatch_1-16" gradientTransform="matrix(.259 .966 -.966 .259 71.675 15.024)" x1="26.047" x2="26.047" xlink:href="#New_Gradient_Swatch_1" y1="2" y2="68.008"/><linearGradient id="New_Gradient_Swatch_1-17" x1="32" x2="32" xlink:href="#New_Gradient_Swatch_1" y1="2" y2="68.008"/><linearGradient id="New_Gradient_Swatch_1-18" x1="55" x2="55" xlink:href="#New_Gradient_Swatch_1" y1="2" y2="68.008"/><linearGradient id="New_Gradient_Swatch_1-19" gradientTransform="matrix(.966 .259 -.259 .966 8.589 -13.145)" x1="54.216" x2="54.216" xlink:href="#New_Gradient_Swatch_1" y1="2" y2="68.008"/><linearGradient id="New_Gradient_Swatch_1-20" gradientTransform="matrix(.866 .5 -.5 .866 17.202 -23.21)" x1="51.919" x2="51.919" xlink:href="#New_Gradient_Swatch_1" y1="2" y2="68.008"/><linearGradient id="New_Gradient_Swatch_1-21" gradientTransform="matrix(.707 .707 -.707 .707 25.263 -29.518)" x1="48.263" x2="48.263" xlink:href="#New_Gradient_Swatch_1" y1="2" y2="68.008"/><linearGradient id="New_Gradient_Swatch_1-22" gradientTransform="matrix(.5 .866 -.866 .5 32.217 -31.633)" x1="43.5" x2="43.5" xlink:href="#New_Gradient_Swatch_1" y1="2" y2="68.008"/><linearGradient id="New_Gradient_Swatch_1-23" gradientTransform="matrix(.259 .966 -.966 .259 37.58 -29.408)" x1="37.953" x2="37.953" xlink:href="#New_Gradient_Swatch_1" y1="2" y2="68.008"/><g id="Intelligence-2" data-name="Intelligence"><path d="m51 36a11.013 11.013 0 0 0 -11 10.834l-1.95 5.85a1 1 0 0 0 .95 1.316h3v3a1 1 0 0 0 1 1h3v3a1 1 0 0 0 1 1h8a1 1 0 0 0 1-1v-4.206a11 11 0 0 0 -5-20.794zm3.6 19.246a1 1 0 0 0 -.6.916v3.838h-6v-3a1 1 0 0 0 -1-1h-3v-3a1 1 0 0 0 -1-1h-2.613l1.562-4.684a1 1 0 0 0 .051-.316 9 9 0 1 1 12.6 8.246z" fill="url(#New_Gradient_Swatch_1)"/><path d="m20 8a12.013 12.013 0 0 0 -12 12 11.555 11.555 0 0 0 5 9.5v3.5a1 1 0 0 0 1 1h1v1a5 5 0 0 0 10 0v-1h1a1 1 0 0 0 1-1v-3.5a11.555 11.555 0 0 0 5-9.5 12.013 12.013 0 0 0 -12-12zm3 27a3 3 0 0 1 -6 0v-1h6zm2-3h-10v-2h10zm.674-4h-4.674v-6h3v-2h-8v2h3v6h-4.674a9.614 9.614 0 0 1 -4.326-8 10 10 0 0 1 20 0 9.614 9.614 0 0 1 -4.326 8z" fill="url(#New_Gradient_Swatch_1-2)"/><path d="m24.571 13.434-1.144 1.64a6.01 6.01 0 0 1 2.573 4.926h2a8.01 8.01 0 0 0 -3.429-6.566z" fill="url(#New_Gradient_Swatch_1-3)"/><path d="m20 14a5.983 5.983 0 0 1 1.712.248l.569-1.918a8.021 8.021 0 0 0 -2.281-.33z" fill="url(#New_Gradient_Swatch_1-4)"/><path d="m19 2h2v4h-2z" fill="url(#New_Gradient_Swatch_1-2)"/><path d="m7.686 6.686h2v4h-2z" fill="url(#New_Gradient_Swatch_1-6)" transform="matrix(.707 -.707 .707 .707 -3.598 8.686)"/><path d="m2 19h4v2h-4z" fill="url(#New_Gradient_Swatch_1-7)"/><path d="m34 19h4v2h-4z" fill="url(#New_Gradient_Swatch_1-8)"/><path d="m29.314 7.686h4v2h-4z" fill="url(#New_Gradient_Swatch_1-9)" transform="matrix(.707 -.707 .707 .707 3.029 24.686)"/><path d="m55.951 43.515a3.99 3.99 0 0 0 -7.951.485v6a3.99 3.99 0 0 0 7.952.477 3.982 3.982 0 0 0 0-6.962zm-.379 4.7a3.927 3.927 0 0 0 -2.248-1.981l-.648 1.892a1.956 1.956 0 0 1 1.316 1.751c0 .035 0 .089.008.123a2 2 0 0 1 -4 0v-6a2 2 0 0 1 2-2 1.976 1.976 0 0 1 1.727 1.025 3.729 3.729 0 0 0 -1.088.223l.722 1.865a1.79 1.79 0 0 1 1.306.013 1.969 1.969 0 0 1 .905 3.089z" fill="url(#New_Gradient_Swatch_1-10)"/><path d="m8 31h2v2h-2z" fill="url(#New_Gradient_Swatch_1-11)"/><path d="m8.784 36.953h2v2h-2z" fill="url(#New_Gradient_Swatch_1-12)" transform="matrix(.966 -.259 .259 .966 -9.489 3.825)"/><path d="m11.081 42.5h2v2h-2z" fill="url(#New_Gradient_Swatch_1-13)" transform="matrix(.866 -.5 .5 .866 -20.128 11.866)"/><path d="m14.736 47.264h2v2h-2z" fill="url(#New_Gradient_Swatch_1-14)" transform="matrix(.707 -.707 .707 .707 -29.518 25.263)"/><path d="m19.5 50.919h2v2h-2z" fill="url(#New_Gradient_Swatch_1-15)" transform="matrix(.5 -.866 .866 .5 -34.714 43.718)"/><path d="m25.047 53.216h2v2h-2z" fill="url(#New_Gradient_Swatch_1-16)" transform="matrix(.259 -.966 .966 .259 -33.063 65.344)"/><path d="m31 54h2v2h-2z" fill="url(#New_Gradient_Swatch_1-17)"/><path d="m54 31h2v2h-2z" fill="url(#New_Gradient_Swatch_1-18)"/><path d="m53.216 25.047h2v2h-2z" fill="url(#New_Gradient_Swatch_1-19)" transform="matrix(.966 -.259 .259 .966 -4.894 14.92)"/><path d="m50.919 19.5h2v2h-2z" fill="url(#New_Gradient_Swatch_1-20)" transform="matrix(.866 -.5 .5 .866 -3.295 28.701)"/><path d="m47.263 14.737h2v2h-2z" fill="url(#New_Gradient_Swatch_1-21)" transform="matrix(.707 -.707 .707 .707 3.009 38.737)"/><path d="m42.5 11.081h2v2h-2z" fill="url(#New_Gradient_Swatch_1-22)" transform="matrix(.5 -.866 .866 .5 11.29 43.716)"/><path d="m36.953 8.784h2v2h-2z" fill="url(#New_Gradient_Swatch_1-23)" transform="matrix(.259 -.966 .966 .259 18.68 43.911)"/></g></svg>